<mxfile host="65bd71144e">
    <diagram id="MptWR7sLhr9tuAY_sSrC" name="Top-Down-Design">
        <mxGraphModel dx="1074" dy="692" grid="1" gridSize="10" guides="1" tooltips="1" connect="1" arrows="1" fold="1" page="1" pageScale="1" pageWidth="827" pageHeight="1169" math="0" shadow="0">
            <root>
                <mxCell id="0"/>
                <mxCell id="1" parent="0"/>
                <mxCell id="os8GEtTZ8lav6EYXm0En-2" style="edgeStyle=none;html=1;" edge="1" parent="1" source="os8GEtTZ8lav6EYXm0En-5" target="os8GEtTZ8lav6EYXm0En-8">
                    <mxGeometry relative="1" as="geometry"/>
                </mxCell>
                <mxCell id="os8GEtTZ8lav6EYXm0En-3" style="edgeStyle=orthogonalEdgeStyle;html=1;rounded=0;" edge="1" parent="1" source="os8GEtTZ8lav6EYXm0En-5" target="os8GEtTZ8lav6EYXm0En-11">
                    <mxGeometry relative="1" as="geometry">
                        <Array as="points">
                            <mxPoint x="414" y="130"/>
                            <mxPoint x="270" y="130"/>
                        </Array>
                    </mxGeometry>
                </mxCell>
                <mxCell id="os8GEtTZ8lav6EYXm0En-4" style="edgeStyle=orthogonalEdgeStyle;html=1;rounded=0;entryX=0.5;entryY=0;entryDx=0;entryDy=0;" edge="1" parent="1" source="os8GEtTZ8lav6EYXm0En-5" target="os8GEtTZ8lav6EYXm0En-14">
                    <mxGeometry relative="1" as="geometry">
                        <Array as="points">
                            <mxPoint x="414" y="130"/>
                            <mxPoint x="560" y="130"/>
                        </Array>
                        <mxPoint x="560" y="150" as="targetPoint"/>
                    </mxGeometry>
                </mxCell>
                <mxCell id="os8GEtTZ8lav6EYXm0En-5" value="Circumference" style="rounded=0;whiteSpace=wrap;html=1;" vertex="1" parent="1">
                    <mxGeometry x="354" y="40" width="120" height="60" as="geometry"/>
                </mxCell>
                <mxCell id="os8GEtTZ8lav6EYXm0En-7" style="edgeStyle=orthogonalEdgeStyle;html=1;rounded=0;" edge="1" parent="1" source="os8GEtTZ8lav6EYXm0En-8" target="os8GEtTZ8lav6EYXm0En-20">
                    <mxGeometry relative="1" as="geometry"/>
                </mxCell>
                <mxCell id="os8GEtTZ8lav6EYXm0En-8" value="Process" style="rounded=0;whiteSpace=wrap;html=1;" vertex="1" parent="1">
                    <mxGeometry x="354" y="160" width="120" height="60" as="geometry"/>
                </mxCell>
                <mxCell id="os8GEtTZ8lav6EYXm0En-10" style="edgeStyle=orthogonalEdgeStyle;html=1;entryX=0.5;entryY=0;entryDx=0;entryDy=0;rounded=0;" edge="1" parent="1" source="os8GEtTZ8lav6EYXm0En-11" target="os8GEtTZ8lav6EYXm0En-16">
                    <mxGeometry relative="1" as="geometry"/>
                </mxCell>
                <mxCell id="os8GEtTZ8lav6EYXm0En-11" value="Input" style="rounded=0;whiteSpace=wrap;html=1;" vertex="1" parent="1">
                    <mxGeometry x="210" y="160" width="120" height="60" as="geometry"/>
                </mxCell>
                <mxCell id="os8GEtTZ8lav6EYXm0En-13" style="edgeStyle=orthogonalEdgeStyle;html=1;rounded=0;" edge="1" parent="1" source="os8GEtTZ8lav6EYXm0En-14" target="os8GEtTZ8lav6EYXm0En-17">
                    <mxGeometry relative="1" as="geometry"/>
                </mxCell>
                <mxCell id="os8GEtTZ8lav6EYXm0En-14" value="Output" style="rounded=0;whiteSpace=wrap;html=1;" vertex="1" parent="1">
                    <mxGeometry x="500" y="160" width="120" height="60" as="geometry"/>
                </mxCell>
                <mxCell id="os8GEtTZ8lav6EYXm0En-16" value="Get Radius" style="rounded=0;whiteSpace=wrap;html=1;" vertex="1" parent="1">
                    <mxGeometry x="210" y="260" width="120" height="60" as="geometry"/>
                </mxCell>
                <mxCell id="os8GEtTZ8lav6EYXm0En-17" value="Show Circumference" style="rounded=0;whiteSpace=wrap;html=1;" vertex="1" parent="1">
                    <mxGeometry x="500" y="260" width="120" height="60" as="geometry"/>
                </mxCell>
                <mxCell id="os8GEtTZ8lav6EYXm0En-20" value="Circumference = Tau*radius" style="rounded=0;whiteSpace=wrap;html=1;" vertex="1" parent="1">
                    <mxGeometry x="354" y="260" width="120" height="60" as="geometry"/>
                </mxCell>
            </root>
        </mxGraphModel>
    </diagram>
    <diagram id="kbUZpu8AOKCzzj3mhTbp" name="FlowChart">
        <mxGraphModel dx="1074" dy="692" grid="1" gridSize="10" guides="1" tooltips="1" connect="1" arrows="1" fold="1" page="1" pageScale="1" pageWidth="827" pageHeight="1169" math="0" shadow="0">
            <root>
                <mxCell id="O8ty-ssRBJBr1VNSu9fP-0"/>
                <mxCell id="O8ty-ssRBJBr1VNSu9fP-1" parent="O8ty-ssRBJBr1VNSu9fP-0"/>
            </root>
        </mxGraphModel>
    </diagram>
</mxfile>